<?xml version="1.0" standalone="no"?>
<!DOCTYPE svg PUBLIC "-//W3C//DTD SVG 20010904//EN"
 "http://www.w3.org/TR/2001/REC-SVG-20010904/DTD/svg10.dtd">
<svg version="1.0" xmlns="http://www.w3.org/2000/svg"
 width="700.000000pt" height="700.000000pt" viewBox="0 0 700.000000 700.000000"
 preserveAspectRatio="xMidYMid meet">
<metadata>
Created by potrace 1.11, written by Peter Selinger 2001-2013
</metadata>
<g transform="translate(0.000000,700.000000) scale(0.100000,-0.100000)"
fill="#000000" stroke="none">
<path d="M473 6985 c-26 -18 -50 -80 -61 -157 -9 -60 -8 -333 2 -433 3 -33 8
-89 11 -125 4 -36 8 -76 10 -90 3 -14 7 -50 10 -80 3 -30 7 -66 10 -80 2 -14
7 -45 10 -70 4 -25 8 -58 11 -75 3 -16 7 -41 9 -55 6 -39 45 -283 50 -305 13
-65 35 -185 40 -215 3 -19 20 -100 36 -180 17 -80 33 -156 35 -170 7 -32 33
-151 50 -225 8 -33 16 -73 19 -90 3 -16 30 -129 61 -250 30 -121 56 -229 59
-240 12 -53 90 -330 129 -459 l44 -145 -64 -97 c-124 -188 -231 -375 -340
-594 -71 -144 -83 -169 -143 -308 -102 -235 -295 -792 -279 -807 3 -3 38 13
79 36 41 23 126 67 189 96 63 30 124 59 135 65 17 9 18 9 9 -3 -29 -38 -98
-358 -75 -347 3 2 29 15 56 29 163 86 409 173 610 215 114 24 152 28 310 28
151 0 194 -4 265 -21 261 -66 461 -231 586 -483 67 -137 85 -194 169 -560 73
-315 199 -484 405 -539 32 -9 52 -22 70 -47 55 -76 198 -158 312 -179 12 -3
45 -9 72 -14 72 -13 251 -6 326 14 135 35 251 101 306 175 21 28 41 42 74 51
52 14 131 52 151 72 8 7 21 18 30 23 34 18 101 111 138 189 49 102 63 148 101
320 57 264 89 365 156 499 108 215 283 376 487 450 37 13 70 24 72 25 3 0 31
5 63 12 31 7 124 13 207 14 196 0 267 -9 455 -59 52 -15 100 -27 107 -29 7 -2
16 -6 19 -10 4 -4 15 -7 24 -7 20 0 164 -58 289 -116 61 -29 97 -41 101 -34 5
8 -10 132 -19 158 0 1 -3 14 -7 30 -3 15 -15 51 -25 81 -22 59 -20 67 8 53 10
-5 43 -20 73 -34 30 -14 66 -30 80 -37 25 -11 114 -59 196 -105 l41 -23 -33
111 c-138 464 -335 931 -550 1302 -32 54 -62 108 -69 119 -25 46 -85 138 -170
265 -83 123 -91 138 -83 165 5 17 11 37 13 45 2 8 22 80 45 159 60 213 198
763 225 901 9 48 67 323 77 365 6 28 12 57 13 65 1 8 5 29 8 45 4 17 9 44 12
60 4 28 7 41 20 105 2 14 6 36 9 50 2 14 9 52 14 85 6 33 13 74 15 90 3 17 10
57 15 90 6 33 14 80 17 105 3 25 8 56 10 70 19 130 31 223 50 405 17 160 22
424 10 496 -15 95 -34 144 -62 165 -88 64 -387 -101 -718 -396 -204 -181 -532
-512 -745 -750 -41 -47 -116 -129 -165 -185 -50 -55 -131 -147 -180 -205 -50
-58 -94 -110 -100 -116 -5 -6 -26 -30 -45 -54 -19 -24 -40 -48 -45 -54 -8 -8
-136 -162 -170 -204 -1 -1 -19 5 -39 13 -119 50 -397 110 -560 122 -137 9
-338 4 -417 -12 -13 -3 -40 -8 -59 -11 -81 -12 -293 -69 -393 -106 -60 -22
-110 -38 -111 -36 -39 47 -270 323 -316 378 -35 41 -109 126 -164 189 -56 62
-111 124 -123 138 -650 737 -1180 1203 -1462 1287 -68 20 -101 20 -128 1z"/>
</g>
</svg>
